<svg width="32" height="32" viewBox="0 0 32 32" fill="none" xmlns="http://www.w3.org/2000/svg">
<rect width="32" height="32" fill="#0A1921"/>
<path d="M4.7281 21.8673C4.6364 21.8673 4.56207 21.793 4.56207 21.7013V14.9879C4.56207 14.8312 4.36495 14.7617 4.2667 14.8838L4.11383 15.0737C4.08231 15.1129 4.03475 15.1356 3.98449 15.1356H1.35614C1.21509 15.1356 1.13829 14.9709 1.22897 14.8628L4.42174 11.0593C4.45329 11.0217 4.49984 11 4.54891 11H6.70535C6.79704 11 6.87138 11.0743 6.87138 11.166V21.7013C6.87138 21.793 6.79704 21.8673 6.70535 21.8673H4.7281Z" fill="#F3F3F3"/>
<path d="M9.94479 21.8673C9.5423 21.8673 9.17502 21.7566 8.84296 21.5353C8.51091 21.3038 8.24426 21.012 8.04301 20.6598C7.84176 20.2976 7.74114 19.9203 7.74114 19.5278V13.2489C7.74114 12.8464 7.84176 12.4741 8.04301 12.132C8.24426 11.7899 8.51091 11.5182 8.84296 11.317C9.17502 11.1057 9.5423 11 9.94479 11H16.2086C16.6111 11 16.9784 11.1057 17.3104 11.317C17.6425 11.5182 17.9091 11.7899 18.1104 12.132C18.3116 12.4741 18.4122 12.8464 18.4122 13.2489V19.5278C18.4122 19.9203 18.3116 20.2976 18.1104 20.6598C17.9091 21.012 17.6425 21.3038 17.3104 21.5353C16.9784 21.7566 16.6111 21.8673 16.2086 21.8673H9.94479ZM11.637 19.1139C11.5184 19.2136 11.5889 19.4071 11.7438 19.4071H15.9369C16.0286 19.4071 16.1029 19.3328 16.1029 19.2411V15.7184C16.1029 15.5773 15.9381 15.5005 15.8301 15.5912L11.637 19.1139ZM10.0504 17.0584C10.0504 17.1995 10.2153 17.2763 10.3233 17.1855L14.5163 13.6628C14.635 13.5632 14.5645 13.3697 14.4095 13.3697H10.2165C10.1248 13.3697 10.0504 13.444 10.0504 13.5357V17.0584Z" fill="#F3F3F3"/>
<path d="M22.5325 21.8673C22.13 21.8673 21.7628 21.7566 21.4307 21.5353C21.0987 21.3038 20.832 21.012 20.6308 20.6598C20.4295 20.2976 20.3289 19.9203 20.3289 19.5278V13.2489C20.3289 12.8464 20.4295 12.4741 20.6308 12.132C20.832 11.7899 21.0987 11.5182 21.4307 11.317C21.7628 11.1057 22.13 11 22.5325 11H28.7963C29.1988 11 29.5661 11.1057 29.8982 11.317C30.2302 11.5182 30.4969 11.7899 30.6981 12.132C30.8994 12.4741 31 12.8464 31 13.2489V19.5278C31 19.9203 30.8994 20.2976 30.6981 20.6598C30.4969 21.012 30.2302 21.3038 29.8982 21.5353C29.5661 21.7566 29.1988 21.8673 28.7963 21.8673H22.5325ZM24.2248 19.1139C24.1062 19.2136 24.1766 19.4071 24.3316 19.4071H28.5247C28.6164 19.4071 28.6907 19.3328 28.6907 19.2411V15.7184C28.6907 15.5773 28.5259 15.5005 28.4179 15.5912L24.2248 19.1139ZM22.6382 17.0584C22.6382 17.1995 22.803 17.2763 22.911 17.1855L27.1041 13.6628C27.2227 13.5632 27.1522 13.3697 26.9973 13.3697H22.8042C22.7125 13.3697 22.6382 13.444 22.6382 13.5357V17.0584Z" fill="#F3F3F3"/>
</svg>
